<mxfile host="app.diagrams.net" modified="2023-09-04T20:50:04.357Z" agent="Mozilla/5.0 (Windows NT 10.0; Win64; x64) AppleWebKit/537.36 (KHTML, like Gecko) Chrome/116.0.0.0 Safari/537.36" etag="nvS-hMf5Gh5ogJJ33O2-" version="21.7.1" type="device">
  <diagram name="PÃ¡gina-1" id="r5auKBAjSaOcK4Md0aPP">
    <mxGraphModel dx="2603" dy="782" grid="1" gridSize="10" guides="1" tooltips="1" connect="1" arrows="1" fold="1" page="1" pageScale="1" pageWidth="1169" pageHeight="827" math="0" shadow="0">
      <root>
        <mxCell id="0" />
        <mxCell id="1" parent="0" />
        <mxCell id="DP8Jx5X4zibSQCms_1Pf-19" style="edgeStyle=orthogonalEdgeStyle;rounded=0;orthogonalLoop=1;jettySize=auto;html=1;exitX=1;exitY=0.5;exitDx=0;exitDy=0;entryX=0;entryY=0.5;entryDx=0;entryDy=0;" parent="1" source="DP8Jx5X4zibSQCms_1Pf-1" target="DP8Jx5X4zibSQCms_1Pf-13" edge="1">
          <mxGeometry relative="1" as="geometry" />
        </mxCell>
        <mxCell id="4TX8RcS20DUWZ-DZdMpi-28" style="edgeStyle=orthogonalEdgeStyle;rounded=0;orthogonalLoop=1;jettySize=auto;html=1;exitX=0.5;exitY=1;exitDx=0;exitDy=0;" parent="1" source="DP8Jx5X4zibSQCms_1Pf-1" target="4TX8RcS20DUWZ-DZdMpi-27" edge="1">
          <mxGeometry relative="1" as="geometry" />
        </mxCell>
        <mxCell id="UIn8cUzHgWQQU4bPocQK-120" style="edgeStyle=orthogonalEdgeStyle;rounded=0;orthogonalLoop=1;jettySize=auto;html=1;exitX=0.5;exitY=0;exitDx=0;exitDy=0;entryX=0.5;entryY=1;entryDx=0;entryDy=0;" parent="1" source="DP8Jx5X4zibSQCms_1Pf-1" target="DP8Jx5X4zibSQCms_1Pf-6" edge="1">
          <mxGeometry relative="1" as="geometry" />
        </mxCell>
        <mxCell id="UIn8cUzHgWQQU4bPocQK-121" style="edgeStyle=orthogonalEdgeStyle;rounded=0;orthogonalLoop=1;jettySize=auto;html=1;exitX=0.5;exitY=0;exitDx=0;exitDy=0;entryX=0.5;entryY=1;entryDx=0;entryDy=0;" parent="1" source="DP8Jx5X4zibSQCms_1Pf-1" target="DP8Jx5X4zibSQCms_1Pf-4" edge="1">
          <mxGeometry relative="1" as="geometry" />
        </mxCell>
        <mxCell id="UIn8cUzHgWQQU4bPocQK-122" style="edgeStyle=orthogonalEdgeStyle;rounded=0;orthogonalLoop=1;jettySize=auto;html=1;exitX=0.5;exitY=0;exitDx=0;exitDy=0;entryX=0.57;entryY=1.01;entryDx=0;entryDy=0;entryPerimeter=0;" parent="1" source="DP8Jx5X4zibSQCms_1Pf-1" target="DP8Jx5X4zibSQCms_1Pf-2" edge="1">
          <mxGeometry relative="1" as="geometry" />
        </mxCell>
        <mxCell id="UIn8cUzHgWQQU4bPocQK-124" style="edgeStyle=orthogonalEdgeStyle;rounded=0;orthogonalLoop=1;jettySize=auto;html=1;exitX=0;exitY=0.5;exitDx=0;exitDy=0;entryX=1;entryY=0.5;entryDx=0;entryDy=0;" parent="1" source="DP8Jx5X4zibSQCms_1Pf-1" target="DP8Jx5X4zibSQCms_1Pf-5" edge="1">
          <mxGeometry relative="1" as="geometry" />
        </mxCell>
        <mxCell id="UIn8cUzHgWQQU4bPocQK-125" style="edgeStyle=orthogonalEdgeStyle;rounded=0;orthogonalLoop=1;jettySize=auto;html=1;exitX=0;exitY=0.5;exitDx=0;exitDy=0;entryX=1;entryY=0.5;entryDx=0;entryDy=0;" parent="1" source="DP8Jx5X4zibSQCms_1Pf-1" target="DP8Jx5X4zibSQCms_1Pf-3" edge="1">
          <mxGeometry relative="1" as="geometry" />
        </mxCell>
        <mxCell id="DP8Jx5X4zibSQCms_1Pf-1" value="&lt;b&gt;proveedores&lt;/b&gt;" style="whiteSpace=wrap;html=1;align=center;" parent="1" vertex="1">
          <mxGeometry x="60" y="140" width="100" height="40" as="geometry" />
        </mxCell>
        <mxCell id="DP8Jx5X4zibSQCms_1Pf-2" value="RFC" style="ellipse;whiteSpace=wrap;html=1;align=center;fontStyle=4;" parent="1" vertex="1">
          <mxGeometry x="-40" y="20" width="100" height="40" as="geometry" />
        </mxCell>
        <mxCell id="DP8Jx5X4zibSQCms_1Pf-3" value="telefono" style="ellipse;whiteSpace=wrap;html=1;align=center;" parent="1" vertex="1">
          <mxGeometry x="-130" y="140" width="100" height="40" as="geometry" />
        </mxCell>
        <mxCell id="DP8Jx5X4zibSQCms_1Pf-4" value="nombre" style="ellipse;whiteSpace=wrap;html=1;align=center;" parent="1" vertex="1">
          <mxGeometry x="80" y="20" width="100" height="40" as="geometry" />
        </mxCell>
        <mxCell id="DP8Jx5X4zibSQCms_1Pf-5" value="direccion_id" style="ellipse;whiteSpace=wrap;html=1;align=center;" parent="1" vertex="1">
          <mxGeometry x="-130" y="90" width="100" height="40" as="geometry" />
        </mxCell>
        <mxCell id="DP8Jx5X4zibSQCms_1Pf-6" value="pagina-web" style="ellipse;whiteSpace=wrap;html=1;align=center;" parent="1" vertex="1">
          <mxGeometry x="200" y="20" width="100" height="40" as="geometry" />
        </mxCell>
        <mxCell id="DP8Jx5X4zibSQCms_1Pf-20" style="edgeStyle=orthogonalEdgeStyle;rounded=0;orthogonalLoop=1;jettySize=auto;html=1;exitX=0;exitY=0.5;exitDx=0;exitDy=0;entryX=1;entryY=0.5;entryDx=0;entryDy=0;" parent="1" source="DP8Jx5X4zibSQCms_1Pf-7" target="DP8Jx5X4zibSQCms_1Pf-13" edge="1">
          <mxGeometry relative="1" as="geometry" />
        </mxCell>
        <mxCell id="DP8Jx5X4zibSQCms_1Pf-33" style="edgeStyle=orthogonalEdgeStyle;rounded=0;orthogonalLoop=1;jettySize=auto;html=1;exitX=0.5;exitY=1;exitDx=0;exitDy=0;entryX=0.5;entryY=0;entryDx=0;entryDy=0;" parent="1" source="DP8Jx5X4zibSQCms_1Pf-7" target="DP8Jx5X4zibSQCms_1Pf-30" edge="1">
          <mxGeometry relative="1" as="geometry" />
        </mxCell>
        <mxCell id="UIn8cUzHgWQQU4bPocQK-133" style="edgeStyle=orthogonalEdgeStyle;rounded=0;orthogonalLoop=1;jettySize=auto;html=1;exitX=0.5;exitY=0;exitDx=0;exitDy=0;entryX=0.5;entryY=1;entryDx=0;entryDy=0;" parent="1" source="DP8Jx5X4zibSQCms_1Pf-7" target="DP8Jx5X4zibSQCms_1Pf-14" edge="1">
          <mxGeometry relative="1" as="geometry" />
        </mxCell>
        <mxCell id="UIn8cUzHgWQQU4bPocQK-134" style="edgeStyle=orthogonalEdgeStyle;rounded=0;orthogonalLoop=1;jettySize=auto;html=1;exitX=0.5;exitY=0;exitDx=0;exitDy=0;entryX=0.5;entryY=1;entryDx=0;entryDy=0;" parent="1" source="DP8Jx5X4zibSQCms_1Pf-7" target="DP8Jx5X4zibSQCms_1Pf-17" edge="1">
          <mxGeometry relative="1" as="geometry" />
        </mxCell>
        <mxCell id="UIn8cUzHgWQQU4bPocQK-137" style="edgeStyle=orthogonalEdgeStyle;rounded=0;orthogonalLoop=1;jettySize=auto;html=1;exitX=1;exitY=0.5;exitDx=0;exitDy=0;entryX=0;entryY=0.5;entryDx=0;entryDy=0;" parent="1" source="DP8Jx5X4zibSQCms_1Pf-7" target="DP8Jx5X4zibSQCms_1Pf-16" edge="1">
          <mxGeometry relative="1" as="geometry" />
        </mxCell>
        <mxCell id="UIn8cUzHgWQQU4bPocQK-138" style="edgeStyle=orthogonalEdgeStyle;rounded=0;orthogonalLoop=1;jettySize=auto;html=1;exitX=1;exitY=0.5;exitDx=0;exitDy=0;entryX=0;entryY=0.5;entryDx=0;entryDy=0;" parent="1" source="DP8Jx5X4zibSQCms_1Pf-7" target="DP8Jx5X4zibSQCms_1Pf-15" edge="1">
          <mxGeometry relative="1" as="geometry" />
        </mxCell>
        <mxCell id="UIn8cUzHgWQQU4bPocQK-139" style="edgeStyle=orthogonalEdgeStyle;rounded=0;orthogonalLoop=1;jettySize=auto;html=1;exitX=1;exitY=0.5;exitDx=0;exitDy=0;entryX=0;entryY=0.5;entryDx=0;entryDy=0;" parent="1" source="DP8Jx5X4zibSQCms_1Pf-7" target="DP8Jx5X4zibSQCms_1Pf-26" edge="1">
          <mxGeometry relative="1" as="geometry" />
        </mxCell>
        <mxCell id="UIn8cUzHgWQQU4bPocQK-141" style="edgeStyle=orthogonalEdgeStyle;rounded=0;orthogonalLoop=1;jettySize=auto;html=1;exitX=1;exitY=0.5;exitDx=0;exitDy=0;entryX=0;entryY=0.5;entryDx=0;entryDy=0;" parent="1" source="DP8Jx5X4zibSQCms_1Pf-7" target="DP8Jx5X4zibSQCms_1Pf-18" edge="1">
          <mxGeometry relative="1" as="geometry" />
        </mxCell>
        <mxCell id="DP8Jx5X4zibSQCms_1Pf-7" value="&lt;b&gt;direcciones&lt;/b&gt;" style="whiteSpace=wrap;html=1;align=center;" parent="1" vertex="1">
          <mxGeometry x="730" y="140" width="100" height="40" as="geometry" />
        </mxCell>
        <mxCell id="DP8Jx5X4zibSQCms_1Pf-13" value="Tienen" style="shape=rhombus;perimeter=rhombusPerimeter;whiteSpace=wrap;html=1;align=center;" parent="1" vertex="1">
          <mxGeometry x="400" y="130" width="120" height="60" as="geometry" />
        </mxCell>
        <mxCell id="DP8Jx5X4zibSQCms_1Pf-14" value="id" style="ellipse;whiteSpace=wrap;html=1;align=center;fontStyle=4;" parent="1" vertex="1">
          <mxGeometry x="640" y="40" width="100" height="40" as="geometry" />
        </mxCell>
        <mxCell id="DP8Jx5X4zibSQCms_1Pf-15" value="delegacion" style="ellipse;whiteSpace=wrap;html=1;align=center;" parent="1" vertex="1">
          <mxGeometry x="920" y="175" width="100" height="40" as="geometry" />
        </mxCell>
        <mxCell id="DP8Jx5X4zibSQCms_1Pf-16" value="ciudad" style="ellipse;whiteSpace=wrap;html=1;align=center;" parent="1" vertex="1">
          <mxGeometry x="920" y="110" width="100" height="40" as="geometry" />
        </mxCell>
        <mxCell id="DP8Jx5X4zibSQCms_1Pf-17" value="calle" style="ellipse;whiteSpace=wrap;html=1;align=center;" parent="1" vertex="1">
          <mxGeometry x="760" y="40" width="100" height="40" as="geometry" />
        </mxCell>
        <mxCell id="DP8Jx5X4zibSQCms_1Pf-18" value="numero_ext" style="ellipse;whiteSpace=wrap;html=1;align=center;" parent="1" vertex="1">
          <mxGeometry x="920" y="50" width="100" height="40" as="geometry" />
        </mxCell>
        <mxCell id="DP8Jx5X4zibSQCms_1Pf-26" value="cp" style="ellipse;whiteSpace=wrap;html=1;align=center;" parent="1" vertex="1">
          <mxGeometry x="920" y="230" width="100" height="40" as="geometry" />
        </mxCell>
        <mxCell id="DP8Jx5X4zibSQCms_1Pf-28" value="1" style="text;html=1;align=center;verticalAlign=middle;resizable=0;points=[];autosize=1;strokeColor=none;fillColor=none;fontSize=15;" parent="1" vertex="1">
          <mxGeometry x="160" y="130" width="30" height="30" as="geometry" />
        </mxCell>
        <mxCell id="DP8Jx5X4zibSQCms_1Pf-29" value="1" style="text;html=1;align=center;verticalAlign=middle;resizable=0;points=[];autosize=1;strokeColor=none;fillColor=none;fontSize=15;" parent="1" vertex="1">
          <mxGeometry x="700" y="130" width="30" height="30" as="geometry" />
        </mxCell>
        <mxCell id="DP8Jx5X4zibSQCms_1Pf-30" value="Tienen" style="shape=rhombus;perimeter=rhombusPerimeter;whiteSpace=wrap;html=1;align=center;" parent="1" vertex="1">
          <mxGeometry x="720" y="290" width="120" height="60" as="geometry" />
        </mxCell>
        <mxCell id="DP8Jx5X4zibSQCms_1Pf-32" style="edgeStyle=orthogonalEdgeStyle;rounded=0;orthogonalLoop=1;jettySize=auto;html=1;exitX=0.5;exitY=0;exitDx=0;exitDy=0;entryX=0.5;entryY=1;entryDx=0;entryDy=0;" parent="1" source="DP8Jx5X4zibSQCms_1Pf-31" target="DP8Jx5X4zibSQCms_1Pf-30" edge="1">
          <mxGeometry relative="1" as="geometry" />
        </mxCell>
        <mxCell id="4TX8RcS20DUWZ-DZdMpi-12" style="edgeStyle=orthogonalEdgeStyle;rounded=0;orthogonalLoop=1;jettySize=auto;html=1;exitX=0.5;exitY=1;exitDx=0;exitDy=0;entryX=0.5;entryY=0;entryDx=0;entryDy=0;" parent="1" source="DP8Jx5X4zibSQCms_1Pf-31" target="4TX8RcS20DUWZ-DZdMpi-11" edge="1">
          <mxGeometry relative="1" as="geometry" />
        </mxCell>
        <mxCell id="UIn8cUzHgWQQU4bPocQK-37" style="edgeStyle=orthogonalEdgeStyle;rounded=0;orthogonalLoop=1;jettySize=auto;html=1;exitX=1;exitY=0.5;exitDx=0;exitDy=0;entryX=0;entryY=0.5;entryDx=0;entryDy=0;" parent="1" source="DP8Jx5X4zibSQCms_1Pf-31" target="UIn8cUzHgWQQU4bPocQK-36" edge="1">
          <mxGeometry relative="1" as="geometry" />
        </mxCell>
        <mxCell id="UIn8cUzHgWQQU4bPocQK-130" style="edgeStyle=orthogonalEdgeStyle;rounded=0;orthogonalLoop=1;jettySize=auto;html=1;exitX=0;exitY=0.5;exitDx=0;exitDy=0;entryX=1;entryY=0.5;entryDx=0;entryDy=0;" parent="1" source="DP8Jx5X4zibSQCms_1Pf-31" target="4TX8RcS20DUWZ-DZdMpi-1" edge="1">
          <mxGeometry relative="1" as="geometry" />
        </mxCell>
        <mxCell id="UIn8cUzHgWQQU4bPocQK-131" style="edgeStyle=orthogonalEdgeStyle;rounded=0;orthogonalLoop=1;jettySize=auto;html=1;exitX=0;exitY=0.5;exitDx=0;exitDy=0;entryX=1;entryY=0.5;entryDx=0;entryDy=0;" parent="1" source="DP8Jx5X4zibSQCms_1Pf-31" target="DP8Jx5X4zibSQCms_1Pf-35" edge="1">
          <mxGeometry relative="1" as="geometry" />
        </mxCell>
        <mxCell id="UIn8cUzHgWQQU4bPocQK-132" style="edgeStyle=orthogonalEdgeStyle;rounded=0;orthogonalLoop=1;jettySize=auto;html=1;exitX=0;exitY=0.5;exitDx=0;exitDy=0;entryX=1;entryY=0.5;entryDx=0;entryDy=0;" parent="1" source="DP8Jx5X4zibSQCms_1Pf-31" target="DP8Jx5X4zibSQCms_1Pf-34" edge="1">
          <mxGeometry relative="1" as="geometry" />
        </mxCell>
        <mxCell id="DP8Jx5X4zibSQCms_1Pf-31" value="&lt;b&gt;clientes&lt;/b&gt;" style="whiteSpace=wrap;html=1;align=center;" parent="1" vertex="1">
          <mxGeometry x="730" y="448" width="100" height="40" as="geometry" />
        </mxCell>
        <mxCell id="DP8Jx5X4zibSQCms_1Pf-34" value="nombre" style="ellipse;whiteSpace=wrap;html=1;align=center;" parent="1" vertex="1">
          <mxGeometry x="560" y="518" width="100" height="40" as="geometry" />
        </mxCell>
        <mxCell id="DP8Jx5X4zibSQCms_1Pf-35" value="RFC" style="ellipse;whiteSpace=wrap;html=1;align=center;fontStyle=4;" parent="1" vertex="1">
          <mxGeometry x="560" y="448" width="100" height="40" as="geometry" />
        </mxCell>
        <mxCell id="4TX8RcS20DUWZ-DZdMpi-1" value="direccion_id" style="ellipse;whiteSpace=wrap;html=1;align=center;" parent="1" vertex="1">
          <mxGeometry x="560" y="378" width="100" height="40" as="geometry" />
        </mxCell>
        <mxCell id="4TX8RcS20DUWZ-DZdMpi-9" value="N" style="text;html=1;align=center;verticalAlign=middle;resizable=0;points=[];autosize=1;strokeColor=none;fillColor=none;fontSize=15;" parent="1" vertex="1">
          <mxGeometry x="750" y="180" width="30" height="30" as="geometry" />
        </mxCell>
        <mxCell id="4TX8RcS20DUWZ-DZdMpi-10" value="N" style="text;html=1;align=center;verticalAlign=middle;resizable=0;points=[];autosize=1;strokeColor=none;fillColor=none;fontSize=15;" parent="1" vertex="1">
          <mxGeometry x="750" y="418" width="30" height="30" as="geometry" />
        </mxCell>
        <mxCell id="4TX8RcS20DUWZ-DZdMpi-11" value="Tienen" style="shape=rhombus;perimeter=rhombusPerimeter;whiteSpace=wrap;html=1;align=center;" parent="1" vertex="1">
          <mxGeometry x="720" y="590" width="120" height="60" as="geometry" />
        </mxCell>
        <mxCell id="4TX8RcS20DUWZ-DZdMpi-15" style="edgeStyle=orthogonalEdgeStyle;rounded=0;orthogonalLoop=1;jettySize=auto;html=1;exitX=0.5;exitY=0;exitDx=0;exitDy=0;entryX=0.5;entryY=1;entryDx=0;entryDy=0;" parent="1" source="4TX8RcS20DUWZ-DZdMpi-13" target="4TX8RcS20DUWZ-DZdMpi-11" edge="1">
          <mxGeometry relative="1" as="geometry" />
        </mxCell>
        <mxCell id="UIn8cUzHgWQQU4bPocQK-126" style="edgeStyle=orthogonalEdgeStyle;rounded=0;orthogonalLoop=1;jettySize=auto;html=1;exitX=1;exitY=0.5;exitDx=0;exitDy=0;entryX=0;entryY=0.5;entryDx=0;entryDy=0;" parent="1" source="4TX8RcS20DUWZ-DZdMpi-13" target="4TX8RcS20DUWZ-DZdMpi-19" edge="1">
          <mxGeometry relative="1" as="geometry" />
        </mxCell>
        <mxCell id="UIn8cUzHgWQQU4bPocQK-127" style="edgeStyle=orthogonalEdgeStyle;rounded=0;orthogonalLoop=1;jettySize=auto;html=1;exitX=0.5;exitY=1;exitDx=0;exitDy=0;entryX=0.5;entryY=0;entryDx=0;entryDy=0;" parent="1" source="4TX8RcS20DUWZ-DZdMpi-13" target="4TX8RcS20DUWZ-DZdMpi-21" edge="1">
          <mxGeometry relative="1" as="geometry" />
        </mxCell>
        <mxCell id="UIn8cUzHgWQQU4bPocQK-129" style="edgeStyle=orthogonalEdgeStyle;rounded=0;orthogonalLoop=1;jettySize=auto;html=1;exitX=0;exitY=0.5;exitDx=0;exitDy=0;entryX=1;entryY=0.5;entryDx=0;entryDy=0;" parent="1" source="4TX8RcS20DUWZ-DZdMpi-13" target="4TX8RcS20DUWZ-DZdMpi-20" edge="1">
          <mxGeometry relative="1" as="geometry" />
        </mxCell>
        <mxCell id="4TX8RcS20DUWZ-DZdMpi-13" value="&lt;b&gt;telefonos_clientes&lt;/b&gt;" style="whiteSpace=wrap;html=1;align=center;" parent="1" vertex="1">
          <mxGeometry x="722.5" y="710" width="115" height="40" as="geometry" />
        </mxCell>
        <mxCell id="4TX8RcS20DUWZ-DZdMpi-19" value="telefono" style="ellipse;whiteSpace=wrap;html=1;align=center;" parent="1" vertex="1">
          <mxGeometry x="900" y="710" width="100" height="40" as="geometry" />
        </mxCell>
        <mxCell id="4TX8RcS20DUWZ-DZdMpi-20" value="cliente_id" style="ellipse;whiteSpace=wrap;html=1;align=center;" parent="1" vertex="1">
          <mxGeometry x="585" y="710" width="100" height="40" as="geometry" />
        </mxCell>
        <mxCell id="4TX8RcS20DUWZ-DZdMpi-21" value="id" style="ellipse;whiteSpace=wrap;html=1;align=center;fontStyle=4;" parent="1" vertex="1">
          <mxGeometry x="730" y="780" width="100" height="40" as="geometry" />
        </mxCell>
        <mxCell id="4TX8RcS20DUWZ-DZdMpi-29" style="edgeStyle=orthogonalEdgeStyle;rounded=0;orthogonalLoop=1;jettySize=auto;html=1;exitX=0.5;exitY=0;exitDx=0;exitDy=0;entryX=0.5;entryY=1;entryDx=0;entryDy=0;" parent="1" source="4TX8RcS20DUWZ-DZdMpi-26" target="4TX8RcS20DUWZ-DZdMpi-27" edge="1">
          <mxGeometry relative="1" as="geometry" />
        </mxCell>
        <mxCell id="UIn8cUzHgWQQU4bPocQK-8" style="edgeStyle=orthogonalEdgeStyle;rounded=0;orthogonalLoop=1;jettySize=auto;html=1;exitX=0.5;exitY=1;exitDx=0;exitDy=0;entryX=0.5;entryY=0;entryDx=0;entryDy=0;" parent="1" source="4TX8RcS20DUWZ-DZdMpi-26" target="UIn8cUzHgWQQU4bPocQK-7" edge="1">
          <mxGeometry relative="1" as="geometry" />
        </mxCell>
        <mxCell id="UIn8cUzHgWQQU4bPocQK-69" style="edgeStyle=orthogonalEdgeStyle;rounded=0;orthogonalLoop=1;jettySize=auto;html=1;exitX=0;exitY=0.5;exitDx=0;exitDy=0;entryX=1;entryY=0.5;entryDx=0;entryDy=0;" parent="1" source="4TX8RcS20DUWZ-DZdMpi-26" target="UIn8cUzHgWQQU4bPocQK-65" edge="1">
          <mxGeometry relative="1" as="geometry" />
        </mxCell>
        <mxCell id="UIn8cUzHgWQQU4bPocQK-113" style="edgeStyle=orthogonalEdgeStyle;rounded=0;orthogonalLoop=1;jettySize=auto;html=1;exitX=1;exitY=0.5;exitDx=0;exitDy=0;entryX=0;entryY=0.5;entryDx=0;entryDy=0;" parent="1" source="4TX8RcS20DUWZ-DZdMpi-26" target="4TX8RcS20DUWZ-DZdMpi-31" edge="1">
          <mxGeometry relative="1" as="geometry" />
        </mxCell>
        <mxCell id="UIn8cUzHgWQQU4bPocQK-114" style="edgeStyle=orthogonalEdgeStyle;rounded=0;orthogonalLoop=1;jettySize=auto;html=1;exitX=1;exitY=0.5;exitDx=0;exitDy=0;entryX=0;entryY=0.5;entryDx=0;entryDy=0;" parent="1" source="4TX8RcS20DUWZ-DZdMpi-26" target="UIn8cUzHgWQQU4bPocQK-1" edge="1">
          <mxGeometry relative="1" as="geometry" />
        </mxCell>
        <mxCell id="UIn8cUzHgWQQU4bPocQK-115" style="edgeStyle=orthogonalEdgeStyle;rounded=0;orthogonalLoop=1;jettySize=auto;html=1;exitX=1;exitY=0.5;exitDx=0;exitDy=0;entryX=0;entryY=0.5;entryDx=0;entryDy=0;" parent="1" source="4TX8RcS20DUWZ-DZdMpi-26" target="UIn8cUzHgWQQU4bPocQK-4" edge="1">
          <mxGeometry relative="1" as="geometry" />
        </mxCell>
        <mxCell id="UIn8cUzHgWQQU4bPocQK-116" style="edgeStyle=orthogonalEdgeStyle;rounded=0;orthogonalLoop=1;jettySize=auto;html=1;exitX=1;exitY=0.5;exitDx=0;exitDy=0;entryX=0;entryY=0.5;entryDx=0;entryDy=0;" parent="1" source="4TX8RcS20DUWZ-DZdMpi-26" target="UIn8cUzHgWQQU4bPocQK-3" edge="1">
          <mxGeometry relative="1" as="geometry" />
        </mxCell>
        <mxCell id="UIn8cUzHgWQQU4bPocQK-118" style="edgeStyle=orthogonalEdgeStyle;rounded=0;orthogonalLoop=1;jettySize=auto;html=1;exitX=1;exitY=0.5;exitDx=0;exitDy=0;entryX=0;entryY=0.5;entryDx=0;entryDy=0;" parent="1" source="4TX8RcS20DUWZ-DZdMpi-26" target="4TX8RcS20DUWZ-DZdMpi-30" edge="1">
          <mxGeometry relative="1" as="geometry" />
        </mxCell>
        <mxCell id="UIn8cUzHgWQQU4bPocQK-119" style="edgeStyle=orthogonalEdgeStyle;rounded=0;orthogonalLoop=1;jettySize=auto;html=1;exitX=1;exitY=0.5;exitDx=0;exitDy=0;entryX=0;entryY=0.5;entryDx=0;entryDy=0;" parent="1" source="4TX8RcS20DUWZ-DZdMpi-26" target="UIn8cUzHgWQQU4bPocQK-2" edge="1">
          <mxGeometry relative="1" as="geometry" />
        </mxCell>
        <mxCell id="zSScbOKK5AtsLs2HQxBp-1" style="edgeStyle=orthogonalEdgeStyle;rounded=0;orthogonalLoop=1;jettySize=auto;html=1;exitX=1;exitY=0.5;exitDx=0;exitDy=0;entryX=0;entryY=0.5;entryDx=0;entryDy=0;" parent="1" source="4TX8RcS20DUWZ-DZdMpi-26" target="UIn8cUzHgWQQU4bPocQK-29" edge="1">
          <mxGeometry relative="1" as="geometry" />
        </mxCell>
        <mxCell id="3lb3CsuLd-PRL1lgWZwT-3" style="edgeStyle=orthogonalEdgeStyle;rounded=0;orthogonalLoop=1;jettySize=auto;html=1;exitX=1;exitY=0.5;exitDx=0;exitDy=0;entryX=0;entryY=0.5;entryDx=0;entryDy=0;" edge="1" parent="1" source="4TX8RcS20DUWZ-DZdMpi-26" target="3lb3CsuLd-PRL1lgWZwT-2">
          <mxGeometry relative="1" as="geometry" />
        </mxCell>
        <mxCell id="4TX8RcS20DUWZ-DZdMpi-26" value="&lt;b&gt;productos&lt;/b&gt;" style="whiteSpace=wrap;html=1;align=center;" parent="1" vertex="1">
          <mxGeometry x="60" y="400" width="100" height="40" as="geometry" />
        </mxCell>
        <mxCell id="4TX8RcS20DUWZ-DZdMpi-27" value="Tienen" style="shape=rhombus;perimeter=rhombusPerimeter;whiteSpace=wrap;html=1;align=center;" parent="1" vertex="1">
          <mxGeometry x="50" y="260" width="120" height="60" as="geometry" />
        </mxCell>
        <mxCell id="4TX8RcS20DUWZ-DZdMpi-30" value="nombre" style="ellipse;whiteSpace=wrap;html=1;align=center;" parent="1" vertex="1">
          <mxGeometry x="390" y="478" width="100" height="40" as="geometry" />
        </mxCell>
        <mxCell id="4TX8RcS20DUWZ-DZdMpi-31" value="id" style="ellipse;whiteSpace=wrap;html=1;align=center;fontStyle=4;" parent="1" vertex="1">
          <mxGeometry x="390" y="280" width="100" height="40" as="geometry" />
        </mxCell>
        <mxCell id="UIn8cUzHgWQQU4bPocQK-1" value="stock" style="ellipse;whiteSpace=wrap;html=1;align=center;" parent="1" vertex="1">
          <mxGeometry x="390" y="330" width="100" height="40" as="geometry" />
        </mxCell>
        <mxCell id="UIn8cUzHgWQQU4bPocQK-2" value="precio_actual" style="ellipse;whiteSpace=wrap;html=1;align=center;" parent="1" vertex="1">
          <mxGeometry x="390" y="530" width="100" height="40" as="geometry" />
        </mxCell>
        <mxCell id="UIn8cUzHgWQQU4bPocQK-3" value="categoria_id" style="ellipse;whiteSpace=wrap;html=1;align=center;" parent="1" vertex="1">
          <mxGeometry x="390" y="430" width="100" height="40" as="geometry" />
        </mxCell>
        <mxCell id="UIn8cUzHgWQQU4bPocQK-4" value="proveedor_RFC" style="ellipse;whiteSpace=wrap;html=1;align=center;" parent="1" vertex="1">
          <mxGeometry x="390" y="378" width="100" height="40" as="geometry" />
        </mxCell>
        <mxCell id="UIn8cUzHgWQQU4bPocQK-9" style="edgeStyle=orthogonalEdgeStyle;rounded=0;orthogonalLoop=1;jettySize=auto;html=1;exitX=0.5;exitY=0;exitDx=0;exitDy=0;entryX=0.5;entryY=1;entryDx=0;entryDy=0;" parent="1" source="UIn8cUzHgWQQU4bPocQK-6" target="UIn8cUzHgWQQU4bPocQK-7" edge="1">
          <mxGeometry relative="1" as="geometry" />
        </mxCell>
        <mxCell id="UIn8cUzHgWQQU4bPocQK-80" style="edgeStyle=orthogonalEdgeStyle;rounded=0;orthogonalLoop=1;jettySize=auto;html=1;exitX=1;exitY=0.5;exitDx=0;exitDy=0;entryX=0;entryY=0.5;entryDx=0;entryDy=0;" parent="1" source="UIn8cUzHgWQQU4bPocQK-6" target="UIn8cUzHgWQQU4bPocQK-27" edge="1">
          <mxGeometry relative="1" as="geometry" />
        </mxCell>
        <mxCell id="UIn8cUzHgWQQU4bPocQK-81" style="edgeStyle=orthogonalEdgeStyle;rounded=0;orthogonalLoop=1;jettySize=auto;html=1;exitX=0.5;exitY=1;exitDx=0;exitDy=0;entryX=0.5;entryY=0;entryDx=0;entryDy=0;" parent="1" source="UIn8cUzHgWQQU4bPocQK-6" target="UIn8cUzHgWQQU4bPocQK-28" edge="1">
          <mxGeometry relative="1" as="geometry" />
        </mxCell>
        <mxCell id="UIn8cUzHgWQQU4bPocQK-6" value="&lt;b&gt;categorias&lt;/b&gt;" style="whiteSpace=wrap;html=1;align=center;" parent="1" vertex="1">
          <mxGeometry x="60" y="670" width="100" height="40" as="geometry" />
        </mxCell>
        <mxCell id="UIn8cUzHgWQQU4bPocQK-7" value="Tiene&amp;nbsp;" style="shape=rhombus;perimeter=rhombusPerimeter;whiteSpace=wrap;html=1;align=center;" parent="1" vertex="1">
          <mxGeometry x="50" y="520" width="120" height="60" as="geometry" />
        </mxCell>
        <mxCell id="UIn8cUzHgWQQU4bPocQK-17" value="1" style="text;html=1;align=center;verticalAlign=middle;resizable=0;points=[];autosize=1;strokeColor=none;fillColor=none;fontSize=15;" parent="1" vertex="1">
          <mxGeometry x="750" y="488" width="30" height="30" as="geometry" />
        </mxCell>
        <mxCell id="UIn8cUzHgWQQU4bPocQK-18" value="N" style="text;html=1;align=center;verticalAlign=middle;resizable=0;points=[];autosize=1;strokeColor=none;fillColor=none;fontSize=16;" parent="1" vertex="1">
          <mxGeometry x="740" y="680" width="40" height="30" as="geometry" />
        </mxCell>
        <mxCell id="UIn8cUzHgWQQU4bPocQK-19" value="N" style="text;html=1;align=center;verticalAlign=middle;resizable=0;points=[];autosize=1;strokeColor=none;fillColor=none;fontSize=15;" parent="1" vertex="1">
          <mxGeometry x="80" y="180" width="30" height="30" as="geometry" />
        </mxCell>
        <mxCell id="UIn8cUzHgWQQU4bPocQK-20" value="N" style="text;html=1;align=center;verticalAlign=middle;resizable=0;points=[];autosize=1;strokeColor=none;fillColor=none;fontSize=15;" parent="1" vertex="1">
          <mxGeometry x="80" y="370" width="30" height="30" as="geometry" />
        </mxCell>
        <mxCell id="UIn8cUzHgWQQU4bPocQK-22" value="1" style="text;html=1;align=center;verticalAlign=middle;resizable=0;points=[];autosize=1;strokeColor=none;fillColor=none;fontSize=15;" parent="1" vertex="1">
          <mxGeometry x="80" y="440" width="30" height="30" as="geometry" />
        </mxCell>
        <mxCell id="UIn8cUzHgWQQU4bPocQK-26" value="N" style="text;html=1;align=center;verticalAlign=middle;resizable=0;points=[];autosize=1;strokeColor=none;fillColor=none;fontSize=15;" parent="1" vertex="1">
          <mxGeometry x="80" y="640" width="30" height="30" as="geometry" />
        </mxCell>
        <mxCell id="UIn8cUzHgWQQU4bPocQK-27" value="id" style="ellipse;whiteSpace=wrap;html=1;align=center;fontStyle=4;" parent="1" vertex="1">
          <mxGeometry x="200" y="710" width="100" height="40" as="geometry" />
        </mxCell>
        <mxCell id="UIn8cUzHgWQQU4bPocQK-28" value="nombre" style="ellipse;whiteSpace=wrap;html=1;align=center;" parent="1" vertex="1">
          <mxGeometry x="60" y="750" width="100" height="40" as="geometry" />
        </mxCell>
        <mxCell id="UIn8cUzHgWQQU4bPocQK-29" value="descripcion" style="ellipse;whiteSpace=wrap;html=1;align=center;" parent="1" vertex="1">
          <mxGeometry x="390" y="230" width="100" height="40" as="geometry" />
        </mxCell>
        <mxCell id="UIn8cUzHgWQQU4bPocQK-38" style="edgeStyle=orthogonalEdgeStyle;rounded=0;orthogonalLoop=1;jettySize=auto;html=1;exitX=0;exitY=0.5;exitDx=0;exitDy=0;entryX=1;entryY=0.5;entryDx=0;entryDy=0;" parent="1" source="UIn8cUzHgWQQU4bPocQK-35" target="UIn8cUzHgWQQU4bPocQK-36" edge="1">
          <mxGeometry relative="1" as="geometry" />
        </mxCell>
        <mxCell id="UIn8cUzHgWQQU4bPocQK-142" style="edgeStyle=orthogonalEdgeStyle;rounded=0;orthogonalLoop=1;jettySize=auto;html=1;exitX=1;exitY=0.5;exitDx=0;exitDy=0;entryX=0;entryY=0.5;entryDx=0;entryDy=0;" parent="1" source="UIn8cUzHgWQQU4bPocQK-35" target="UIn8cUzHgWQQU4bPocQK-41" edge="1">
          <mxGeometry relative="1" as="geometry" />
        </mxCell>
        <mxCell id="UIn8cUzHgWQQU4bPocQK-143" style="edgeStyle=orthogonalEdgeStyle;rounded=0;orthogonalLoop=1;jettySize=auto;html=1;exitX=1;exitY=0.5;exitDx=0;exitDy=0;entryX=0;entryY=0.5;entryDx=0;entryDy=0;" parent="1" source="UIn8cUzHgWQQU4bPocQK-35" target="UIn8cUzHgWQQU4bPocQK-42" edge="1">
          <mxGeometry relative="1" as="geometry" />
        </mxCell>
        <mxCell id="UIn8cUzHgWQQU4bPocQK-147" style="edgeStyle=orthogonalEdgeStyle;rounded=0;orthogonalLoop=1;jettySize=auto;html=1;exitX=0.5;exitY=0;exitDx=0;exitDy=0;entryX=0.5;entryY=1;entryDx=0;entryDy=0;" parent="1" source="UIn8cUzHgWQQU4bPocQK-35" target="UIn8cUzHgWQQU4bPocQK-45" edge="1">
          <mxGeometry relative="1" as="geometry" />
        </mxCell>
        <mxCell id="zSScbOKK5AtsLs2HQxBp-3" style="edgeStyle=orthogonalEdgeStyle;rounded=0;orthogonalLoop=1;jettySize=auto;html=1;exitX=1;exitY=0.5;exitDx=0;exitDy=0;entryX=0;entryY=0.5;entryDx=0;entryDy=0;" parent="1" source="UIn8cUzHgWQQU4bPocQK-35" target="UIn8cUzHgWQQU4bPocQK-44" edge="1">
          <mxGeometry relative="1" as="geometry" />
        </mxCell>
        <mxCell id="zSScbOKK5AtsLs2HQxBp-4" style="edgeStyle=orthogonalEdgeStyle;rounded=0;orthogonalLoop=1;jettySize=auto;html=1;exitX=1;exitY=0.5;exitDx=0;exitDy=0;entryX=0;entryY=0.5;entryDx=0;entryDy=0;" parent="1" source="UIn8cUzHgWQQU4bPocQK-35" target="UIn8cUzHgWQQU4bPocQK-40" edge="1">
          <mxGeometry relative="1" as="geometry" />
        </mxCell>
        <mxCell id="zSScbOKK5AtsLs2HQxBp-13" style="edgeStyle=orthogonalEdgeStyle;rounded=0;orthogonalLoop=1;jettySize=auto;html=1;exitX=0.5;exitY=1;exitDx=0;exitDy=0;entryX=1;entryY=0.5;entryDx=0;entryDy=0;" parent="1" source="UIn8cUzHgWQQU4bPocQK-35" target="zSScbOKK5AtsLs2HQxBp-5" edge="1">
          <mxGeometry relative="1" as="geometry" />
        </mxCell>
        <mxCell id="UIn8cUzHgWQQU4bPocQK-35" value="&lt;b&gt;Ventas&lt;/b&gt;" style="whiteSpace=wrap;html=1;align=center;" parent="1" vertex="1">
          <mxGeometry x="1160" y="448" width="100" height="40" as="geometry" />
        </mxCell>
        <mxCell id="UIn8cUzHgWQQU4bPocQK-36" value="Realizan&amp;nbsp;&lt;br&gt;Tiene" style="shape=rhombus;perimeter=rhombusPerimeter;whiteSpace=wrap;html=1;align=center;" parent="1" vertex="1">
          <mxGeometry x="930" y="438" width="120" height="60" as="geometry" />
        </mxCell>
        <mxCell id="UIn8cUzHgWQQU4bPocQK-40" value="id" style="ellipse;whiteSpace=wrap;html=1;align=center;fontStyle=4;" parent="1" vertex="1">
          <mxGeometry x="1340" y="540" width="100" height="40" as="geometry" />
        </mxCell>
        <mxCell id="UIn8cUzHgWQQU4bPocQK-41" value="fecha" style="ellipse;whiteSpace=wrap;html=1;align=center;" parent="1" vertex="1">
          <mxGeometry x="1340" y="428" width="100" height="40" as="geometry" />
        </mxCell>
        <mxCell id="UIn8cUzHgWQQU4bPocQK-42" value="monto_final" style="ellipse;whiteSpace=wrap;html=1;align=center;" parent="1" vertex="1">
          <mxGeometry x="1340" y="488" width="100" height="40" as="geometry" />
        </mxCell>
        <mxCell id="UIn8cUzHgWQQU4bPocQK-44" value="cliente_RFC" style="ellipse;whiteSpace=wrap;html=1;align=center;" parent="1" vertex="1">
          <mxGeometry x="1340" y="365" width="100" height="40" as="geometry" />
        </mxCell>
        <mxCell id="UIn8cUzHgWQQU4bPocQK-45" value="detalles_venta_id" style="ellipse;whiteSpace=wrap;html=1;align=center;" parent="1" vertex="1">
          <mxGeometry x="1145" y="350" width="130" height="40" as="geometry" />
        </mxCell>
        <mxCell id="UIn8cUzHgWQQU4bPocQK-53" value="1" style="text;html=1;align=center;verticalAlign=middle;resizable=0;points=[];autosize=1;strokeColor=none;fillColor=none;fontSize=15;" parent="1" vertex="1">
          <mxGeometry x="830" y="438" width="30" height="30" as="geometry" />
        </mxCell>
        <mxCell id="UIn8cUzHgWQQU4bPocQK-54" value="N" style="text;html=1;align=center;verticalAlign=middle;resizable=0;points=[];autosize=1;strokeColor=none;fillColor=none;fontSize=15;" parent="1" vertex="1">
          <mxGeometry x="1130" y="440" width="30" height="30" as="geometry" />
        </mxCell>
        <mxCell id="UIn8cUzHgWQQU4bPocQK-65" value="Tienen" style="shape=rhombus;perimeter=rhombusPerimeter;whiteSpace=wrap;html=1;align=center;" parent="1" vertex="1">
          <mxGeometry x="-180" y="700" width="120" height="60" as="geometry" />
        </mxCell>
        <mxCell id="UIn8cUzHgWQQU4bPocQK-67" style="edgeStyle=orthogonalEdgeStyle;rounded=0;orthogonalLoop=1;jettySize=auto;html=1;exitX=1;exitY=0.5;exitDx=0;exitDy=0;entryX=0;entryY=0.5;entryDx=0;entryDy=0;" parent="1" source="UIn8cUzHgWQQU4bPocQK-66" target="UIn8cUzHgWQQU4bPocQK-65" edge="1">
          <mxGeometry relative="1" as="geometry" />
        </mxCell>
        <mxCell id="UIn8cUzHgWQQU4bPocQK-77" style="edgeStyle=orthogonalEdgeStyle;rounded=0;orthogonalLoop=1;jettySize=auto;html=1;exitX=0;exitY=0.5;exitDx=0;exitDy=0;entryX=1;entryY=0.5;entryDx=0;entryDy=0;" parent="1" source="UIn8cUzHgWQQU4bPocQK-66" target="UIn8cUzHgWQQU4bPocQK-73" edge="1">
          <mxGeometry relative="1" as="geometry" />
        </mxCell>
        <mxCell id="zSScbOKK5AtsLs2HQxBp-14" style="edgeStyle=orthogonalEdgeStyle;rounded=0;orthogonalLoop=1;jettySize=auto;html=1;exitX=0.5;exitY=1;exitDx=0;exitDy=0;entryX=0;entryY=0.5;entryDx=0;entryDy=0;" parent="1" source="UIn8cUzHgWQQU4bPocQK-66" target="zSScbOKK5AtsLs2HQxBp-5" edge="1">
          <mxGeometry relative="1" as="geometry" />
        </mxCell>
        <mxCell id="zSScbOKK5AtsLs2HQxBp-16" style="edgeStyle=orthogonalEdgeStyle;rounded=0;orthogonalLoop=1;jettySize=auto;html=1;exitX=0.25;exitY=0;exitDx=0;exitDy=0;entryX=0.5;entryY=1;entryDx=0;entryDy=0;" parent="1" source="UIn8cUzHgWQQU4bPocQK-66" target="UIn8cUzHgWQQU4bPocQK-75" edge="1">
          <mxGeometry relative="1" as="geometry" />
        </mxCell>
        <mxCell id="zSScbOKK5AtsLs2HQxBp-18" style="edgeStyle=orthogonalEdgeStyle;rounded=0;orthogonalLoop=1;jettySize=auto;html=1;exitX=0.75;exitY=0;exitDx=0;exitDy=0;entryX=0.5;entryY=1;entryDx=0;entryDy=0;" parent="1" source="UIn8cUzHgWQQU4bPocQK-66" target="UIn8cUzHgWQQU4bPocQK-74" edge="1">
          <mxGeometry relative="1" as="geometry" />
        </mxCell>
        <mxCell id="UIn8cUzHgWQQU4bPocQK-66" value="&lt;b&gt;detalles_ventas&lt;/b&gt;" style="whiteSpace=wrap;html=1;align=center;" parent="1" vertex="1">
          <mxGeometry x="-370" y="710" width="100" height="40" as="geometry" />
        </mxCell>
        <mxCell id="UIn8cUzHgWQQU4bPocQK-70" value="N" style="text;html=1;align=center;verticalAlign=middle;resizable=0;points=[];autosize=1;strokeColor=none;fillColor=none;fontSize=15;" parent="1" vertex="1">
          <mxGeometry x="-270" y="700" width="30" height="30" as="geometry" />
        </mxCell>
        <mxCell id="UIn8cUzHgWQQU4bPocQK-73" value="id" style="ellipse;whiteSpace=wrap;html=1;align=center;fontStyle=4;" parent="1" vertex="1">
          <mxGeometry x="-510" y="710" width="100" height="40" as="geometry" />
        </mxCell>
        <mxCell id="UIn8cUzHgWQQU4bPocQK-74" value="producto_id" style="ellipse;whiteSpace=wrap;html=1;align=center;" parent="1" vertex="1">
          <mxGeometry x="-300" y="610" width="100" height="40" as="geometry" />
        </mxCell>
        <mxCell id="UIn8cUzHgWQQU4bPocQK-75" value="cantidad" style="ellipse;whiteSpace=wrap;html=1;align=center;" parent="1" vertex="1">
          <mxGeometry x="-420" y="610" width="100" height="40" as="geometry" />
        </mxCell>
        <mxCell id="zSScbOKK5AtsLs2HQxBp-5" value="Tienen" style="shape=rhombus;perimeter=rhombusPerimeter;whiteSpace=wrap;html=1;align=center;" parent="1" vertex="1">
          <mxGeometry x="550" y="970" width="120" height="60" as="geometry" />
        </mxCell>
        <mxCell id="zSScbOKK5AtsLs2HQxBp-11" value="1" style="text;html=1;align=center;verticalAlign=middle;resizable=0;points=[];autosize=1;strokeColor=none;fillColor=none;fontSize=15;" parent="1" vertex="1">
          <mxGeometry x="1210" y="488" width="30" height="30" as="geometry" />
        </mxCell>
        <mxCell id="zSScbOKK5AtsLs2HQxBp-15" value="1" style="text;html=1;align=center;verticalAlign=middle;resizable=0;points=[];autosize=1;strokeColor=none;fillColor=none;fontSize=15;" parent="1" vertex="1">
          <mxGeometry x="-320" y="750" width="30" height="30" as="geometry" />
        </mxCell>
        <mxCell id="3lb3CsuLd-PRL1lgWZwT-2" value="descuento" style="ellipse;whiteSpace=wrap;html=1;align=center;" vertex="1" parent="1">
          <mxGeometry x="390" y="580" width="100" height="40" as="geometry" />
        </mxCell>
      </root>
    </mxGraphModel>
  </diagram>
</mxfile>
